<?xml version="1.0" encoding="iso-8859-1"?>
<!-- Generator: Adobe Illustrator 19.0.0, SVG Export Plug-In . SVG Version: 6.00 Build 0)  -->
<svg version="1.1" id="Layer_1" xmlns="http://www.w3.org/2000/svg" xmlns:xlink="http://www.w3.org/1999/xlink" x="0px" y="0px"
	 viewBox="0 0 314.965 314.965" style="enable-background:new 0 0 314.965 314.965;" xml:space="preserve">
<g id="XMLID_31_">
	<path id="XMLID_71_" d="M209.966,59.995c0-21.237-44.898-44.991-104.983-44.991S0,38.758,0,59.995
		c0,21.238,44.896,44.992,104.982,44.992S209.966,81.233,209.966,59.995z"/>
	<path id="XMLID_85_" d="M104.982,284.961c8.77,0,17.211-0.51,25.24-1.439c-6.768-8.698-12.365-18.35-16.558-28.716
		c-2.881,0.097-5.772,0.164-8.683,0.164c-34.333,0-66.847-6.803-91.55-19.155C8.567,233.383,4.091,230.77,0,228.004v11.966
		C0,261.207,44.896,284.961,104.982,284.961z"/>
	<path id="XMLID_86_" d="M104.982,194.977c-34.333,0-66.846-6.803-91.55-19.155c-4.865-2.432-9.342-5.045-13.433-7.81v11.965
		c0,21.238,44.896,44.992,104.982,44.992c0.308,0,0.611-0.005,0.918-0.006c-0.615-4.916-0.936-9.923-0.936-15.003
		c0-5.078,0.32-10.082,0.936-14.994C105.594,194.967,105.289,194.977,104.982,194.977z"/>
	<path id="XMLID_87_" d="M132.57,133.473c-8.982,0.99-18.213,1.515-27.588,1.515c-34.333,0-66.846-6.803-91.55-19.155
		c-4.865-2.433-9.342-5.045-13.433-7.811v11.966c0,21.237,44.896,44.99,104.982,44.99c2.976,0,5.912-0.06,8.811-0.174
		C118.449,153.381,124.812,142.83,132.57,133.473z"/>
	<path id="XMLID_88_" d="M215.475,189.36c0,3.632,1.482,5.647,4.855,7.406v-13.868C215.475,184.526,215.475,187.913,215.475,189.36z
		"/>
	<path id="XMLID_89_" d="M224.965,119.961c-5.129,0-10.158,0.438-15.056,1.266c-24.948,4.22-46.437,18.738-59.927,39.018
		c-6.49,9.757-11.127,20.846-13.408,32.762c-1.053,5.493-1.609,11.16-1.609,16.955c0,4.357,0.318,8.641,0.919,12.834
		c1.477,10.301,4.704,20.041,9.37,28.914c4.896,9.311,11.373,17.666,19.076,24.701c16.008,14.621,37.298,23.551,60.635,23.551
		c49.626,0,90-40.374,90-90C314.965,160.334,274.591,119.961,224.965,119.961z M233,250.676v2.821c0,3.203-3.011,6.014-6.443,6.014
		c-3.553,0-6.443-2.697-6.443-6.014v-2.069c-4.707-0.533-8.763-1.927-12.043-3.748c-5.84-3.24-9.195-7.852-9.195-11.483
		c0-0.564,0.082-1.141,0.223-1.715c0.771-3.161,3.538-6.213,6.963-6.213c0.959,0,1.783,0.25,2.518,0.638
		c0.502,0.264,0.959,0.594,1.388,0.955c0.575,0.484,1.099,1.023,1.597,1.542c1.734,1.804,3.977,4.137,8.551,5.116v-23.622
		c-7.629-2.743-16.071-6.462-18.583-16.458c-0.48-1.908-0.745-4.041-0.745-6.444c0-7.979,3.285-14.192,9.181-18.024
		c2.813-1.828,6.213-3.121,10.147-3.793v-1.745c0-3.32,2.891-6.021,6.443-6.021c3.433,0,6.443,2.813,6.443,6.021v1.411
		c7.242,0.917,16.145,3.739,16.145,10.147c0,3.243-2.521,7.932-7.082,7.932c-1.613,0-2.945-0.68-4.357-1.398
		c-1.2-0.611-2.678-1.365-4.706-1.898v18.926c7.442,2.898,18.057,8.574,18.057,24.979C251.057,239.268,244.528,247.901,233,250.676z
		"/>
	<path id="XMLID_92_" d="M232.684,218.508v16.708c2.445-1.57,3.576-4.182,3.576-8.047
		C236.26,222.989,235.059,220.444,232.684,218.508z"/>
</g>
<g>
</g>
<g>
</g>
<g>
</g>
<g>
</g>
<g>
</g>
<g>
</g>
<g>
</g>
<g>
</g>
<g>
</g>
<g>
</g>
<g>
</g>
<g>
</g>
<g>
</g>
<g>
</g>
<g>
</g>
</svg>
